<?xml version="1.0" encoding="utf-8"?>
<!-- Generator: Adobe Illustrator 15.1.0, SVG Export Plug-In . SVG Version: 6.00 Build 0)  -->
<!DOCTYPE svg PUBLIC "-//W3C//DTD SVG 1.1//EN" "http://www.w3.org/Graphics/SVG/1.1/DTD/svg11.dtd">
<svg version="1.1" id="Layer_1" xmlns="http://www.w3.org/2000/svg" xmlns:xlink="http://www.w3.org/1999/xlink" x="0px" y="0px"
	 width="126.059px" height="45.891px" viewBox="0 0 126.059 45.891" enable-background="new 0 0 126.059 45.891"
	 xml:space="preserve">
<g>
	<g>
		<path fill="#E22527" d="M33.498,11.331c0.013,0.076-0.007,0.148-0.042,0.22C33.49,11.48,33.511,11.407,33.498,11.331
			c-1.14-1.212-6.087-1.774-6.087-1.774v0.438c0,0,0,0,0.001,0v2.31c0.394-0.041,0.762-0.092,1.092-0.149
			c0,0,1.668-0.135,2.087-0.765c-0.417,0.631-2.088,0.766-2.088,0.766c-0.329,0.059-0.698,0.108-1.093,0.15
			c-1.292,0.137-2.882,0.192-4.409,0.237c-3.842,0.159-6.895,0-6.895,0v0.633l-0.005,0.094c0,0,0,0,0.001,0l-0.264,4.33
			c0,0,3.709,0.077,5.524,0.077h0.003c-0.479,2.517-1.606,4.735-3.058,6.374c-0.941,0.283-1.94,0.434-2.974,0.434
			c-5.783,0-10.474-4.73-10.474-10.567c0-5.55,4.238-10.102,9.626-10.536c0.001,0,0.002,0,0.003,0.001
			c1.972,0.743,3.525,2.244,3.525,2.244s-0.857-1.156-2.362-2.204c1.505,1.048,2.363,2.204,2.363,2.204s1.505,0,3.355,0
			c-2.348-3.328-4.788-4.687-6.695-5.238c-0.382-0.11-0.742-0.188-1.076-0.243c-0.334-0.055-0.642-0.087-0.918-0.105
			c0.276,0.018,0.584,0.05,0.918,0.105c0.334,0.055,0.694,0.133,1.076,0.243c1.908,0.552,4.348,1.91,6.695,5.237
			c2.008,0,4.423,0,5.764,0c-0.608-1.144-2.335-3.188-4.409-4.321c-2.919-1.491-6.063-1.297-10.343-1.297
			c-0.146,0-0.289,0.004-0.432,0.009C6.188,0.236,2.194,4.808,0.679,9.956c0.518-1.514,1.182-2.783,1.942-3.835
			c-0.76,1.052-1.424,2.321-1.942,3.835C0.232,11.47,0,13.033,0,14.55c0,2.663,0.478,4.918,1.194,6.796
			c0.083,0.198,2.595,6.063,8.035,6.794c-5.44-0.731-7.952-6.595-8.035-6.794c1.396,3.645,3.703,5.863,5.225,6.869
			c1.642,1.086,3.166,1.529,4.436,1.695c0.301,0.039,0.586,0.061,0.855,0.073c2.737-0.184,4.858-1.049,6.5-2.241
			c-1.642,1.192-3.763,2.058-6.5,2.241c0.188,0.009,0.371,0.015,0.543,0.015c1.459,0,2.237,0,4.799,0
			c0.096,0,0.193-0.002,0.292-0.002c6.505-2.373,8.668-8.398,9.375-12.583c0.106-0.627,0.179-1.214,0.229-1.74
			c-0.05,0.526-0.124,1.113-0.229,1.74c-0.708,4.185-2.87,10.21-9.375,12.583c2.521-0.043,5.753-0.65,8.623-4.082
			c3.308-3.893,3.615-8.656,3.615-8.656c4.004-0.617,3.987-0.974,4.021-1.736c0,0,0.121-2.139,0.121-3.694
			C33.726,11.65,33.643,11.485,33.498,11.331z M30.843,12.575c-0.157,0.029-0.319,0.058-0.485,0.085
			C30.523,12.633,30.685,12.605,30.843,12.575z M28.299,12.935c-0.227,0.024-0.456,0.047-0.686,0.068
			C27.844,12.982,28.073,12.959,28.299,12.935z M23.268,13.256c0.009,0,0.018,0,0.027,0C23.286,13.256,23.277,13.256,23.268,13.256z
			 M13.555,26.917c1.468-0.224,2.937-1.043,4.207-2.289c0.178-0.174,0.35-0.356,0.518-0.546c-0.168,0.189-0.34,0.373-0.518,0.547
			C16.491,25.875,15.023,26.693,13.555,26.917c-0.063-0.009-7.63-1.477-9.276-9.239c-0.17-0.78-0.259-1.582-0.271-2.389
			c0.012,0.807,0.102,1.608,0.271,2.388C5.925,25.44,13.492,26.907,13.555,26.917z M12.45,2.976L12.45,2.976
			c0.407,0,0.812,0.057,1.208,0.152c0,0,0,0,0,0C13.262,3.032,12.856,2.976,12.45,2.976z M9.169,26.271
			c-0.009-0.003-0.016-0.008-0.025-0.011c-1.977-0.854-3.521-2.404-4.591-4.32C5.627,23.864,7.18,25.419,9.169,26.271
			c1.067,0.455,2.261,0.711,3.573,0.711C11.43,26.982,10.238,26.728,9.169,26.271z M4.456,21.773
			c0.001,0.003,0.003,0.006,0.004,0.009C4.459,21.78,4.458,21.777,4.456,21.773z M24.403,13.219
			c0.027-0.001,0.054-0.002,0.082-0.003C24.456,13.217,24.43,13.218,24.403,13.219z M25.697,13.152
			c0.039-0.002,0.079-0.006,0.118-0.008C25.775,13.146,25.736,13.149,25.697,13.152z M26.928,13.062
			c0.099-0.008,0.196-0.016,0.294-0.024c-0.06,0.005-0.119,0.011-0.179,0.016C27.006,13.057,26.968,13.059,26.928,13.062z
			 M26.992,15.167c0.036-0.484,0.052-0.902,0.059-1.236C27.045,14.265,27.029,14.683,26.992,15.167z M29.427,12.8
			c0.229-0.031,0.453-0.063,0.67-0.097C29.88,12.737,29.656,12.769,29.427,12.8z M28.638,12.897c0.16-0.019,0.318-0.038,0.475-0.057
			C28.956,12.86,28.798,12.879,28.638,12.897z M31.061,12.534c0.205-0.041,0.399-0.084,0.585-0.128
			C31.461,12.45,31.266,12.493,31.061,12.534z M31.829,12.36c0.152-0.039,0.295-0.079,0.43-0.121
			C32.124,12.281,31.981,12.321,31.829,12.36z M32.378,12.203c0.158-0.052,0.297-0.106,0.425-0.162
			C32.675,12.097,32.535,12.151,32.378,12.203z M32.91,11.99c0.109-0.053,0.207-0.107,0.288-0.163
			C33.117,11.884,33.02,11.938,32.91,11.99z M33.238,11.802c0.085-0.063,0.144-0.13,0.189-0.198
			C33.382,11.673,33.323,11.739,33.238,11.802z"/>
		<path fill="#E22527" d="M12.22,12.459l-1.426,0.521c0,0,0,0,0.001,0c0,0,0,0.007-0.183,4.364c1.372,0.073,4.183,0.183,4.183,0.183
			l0.203-4.384h-0.001l0.029-0.61L12.22,12.459z M14.511,13.121c-0.926-0.041-2.617-0.112-3.668-0.14
			C11.894,13.008,13.586,13.079,14.511,13.121z"/>
	</g>
	<g>
		
			<linearGradient id="SVGID_1_" gradientUnits="userSpaceOnUse" x1="28.5496" y1="764.1331" x2="22.1303" y2="768.2667" gradientTransform="matrix(1 0 0 1 -16.7197 -748.2666)">
			<stop  offset="0" style="stop-color:#72859A"/>
			<stop  offset="0.196" style="stop-color:#75879C"/>
			<stop  offset="0.3952" style="stop-color:#7C8FA1"/>
			<stop  offset="0.5961" style="stop-color:#8D9CAC"/>
			<stop  offset="0.7968" style="stop-color:#A7B2C0"/>
			<stop  offset="0.8909" style="stop-color:#B6BFCA"/>
		</linearGradient>
		<path fill="url(#SVGID_1_)" d="M18.309,24.052c-0.941,0.283-1.94,0.434-2.974,0.434c-5.783,0-10.474-4.73-10.474-10.567
			c0-5.551,4.238-10.103,9.627-10.536c-0.27-0.102-0.546-0.188-0.828-0.255c-6.922,0.687-10.742,8.311-9.382,14.55
			c1.646,7.763,9.214,9.23,9.276,9.24c1.468-0.224,2.937-1.043,4.207-2.289C17.949,24.445,18.132,24.253,18.309,24.052z"/>
		
			<linearGradient id="SVGID_2_" gradientUnits="userSpaceOnUse" x1="24.7332" y1="753.3137" x2="25.8354" y2="773.8674" gradientTransform="matrix(1 0 0 1 -16.7197 -748.2666)">
			<stop  offset="0" style="stop-color:#72859A"/>
			<stop  offset="0.2222" style="stop-color:#8F9DAF"/>
			<stop  offset="0.5091" style="stop-color:#B6BFCA"/>
			<stop  offset="0.6097" style="stop-color:#B2BBC8"/>
			<stop  offset="0.7248" style="stop-color:#A5B0BE"/>
			<stop  offset="0.8469" style="stop-color:#919EAF"/>
			<stop  offset="0.9731" style="stop-color:#788A9D"/>
			<stop  offset="1" style="stop-color:#72859A"/>
		</linearGradient>
		<path fill="url(#SVGID_2_)" d="M4.279,17.678c-1.36-6.24,2.46-13.863,9.382-14.55c-0.396-0.096-0.804-0.152-1.211-0.152
			c-0.183,0-0.381,0.015-0.593,0.041C8.778,3.414,2.819,6.775,2.819,15c0,4.81,2.263,9.521,6.351,11.271
			c1.067,0.455,2.261,0.711,3.573,0.711c0.27,0,0.541-0.021,0.813-0.063C13.491,26.908,5.925,25.441,4.279,17.678z"/>
		
			<linearGradient id="SVGID_3_" gradientUnits="userSpaceOnUse" x1="23.8787" y1="754.3723" x2="23.5869" y2="771.8301" gradientTransform="matrix(1 0 0 1 -16.7197 -748.2666)">
			<stop  offset="0" style="stop-color:#E21F26"/>
			<stop  offset="0.1616" style="stop-color:#E22427"/>
			<stop  offset="0.2413" style="stop-color:#E32E28"/>
			<stop  offset="0.303" style="stop-color:#E63D2E"/>
			<stop  offset="0.3556" style="stop-color:#E64F39"/>
			<stop  offset="0.4024" style="stop-color:#E96549"/>
			<stop  offset="0.4449" style="stop-color:#EC7B60"/>
			<stop  offset="0.4843" style="stop-color:#F0967B"/>
			<stop  offset="0.5202" style="stop-color:#F5B59E"/>
			<stop  offset="0.5394" style="stop-color:#F7C9B8"/>
			<stop  offset="1" style="stop-color:#E21F26"/>
		</linearGradient>
		<path fill="url(#SVGID_3_)" d="M2.819,15c0-8.225,5.959-11.585,9.038-11.983l0,0c0,0-5.567,0.429-8.131,5.778
			C0.971,14.21,2.228,23.89,9.168,26.272l0,0C5.081,24.521,2.819,19.809,2.819,15z"/>
		
			<linearGradient id="SVGID_4_" gradientUnits="userSpaceOnUse" x1="40.3611" y1="756.5969" x2="36.422" y2="751.2476" gradientTransform="matrix(1 0 0 1 -16.7197 -748.2666)">
			<stop  offset="0" style="stop-color:#72859A"/>
			<stop  offset="0.196" style="stop-color:#75879C"/>
			<stop  offset="0.3952" style="stop-color:#7C8FA1"/>
			<stop  offset="0.5961" style="stop-color:#8D9CAC"/>
			<stop  offset="0.7968" style="stop-color:#A7B2C0"/>
			<stop  offset="0.8909" style="stop-color:#B6BFCA"/>
		</linearGradient>
		<path fill="url(#SVGID_4_)" d="M21.372,5.626c2.008,0,4.423,0,5.764,0c-0.608-1.144-2.335-3.188-4.409-4.321
			c-2.919-1.491-6.063-1.297-10.343-1.297c-0.146,0-0.289,0.004-0.432,0.009C13.623,0.019,17.616,0.303,21.372,5.626z"/>
		
			<linearGradient id="SVGID_5_" gradientUnits="userSpaceOnUse" x1="34.7439" y1="766.1604" x2="20.8675" y2="776.9242" gradientTransform="matrix(1 0 0 1 -16.7197 -748.2666)">
			<stop  offset="0" style="stop-color:#E21F26"/>
			<stop  offset="0.2838" style="stop-color:#E22427"/>
			<stop  offset="0.4238" style="stop-color:#E32E28"/>
			<stop  offset="0.5323" style="stop-color:#E63D2E"/>
			<stop  offset="0.6246" style="stop-color:#E64F39"/>
			<stop  offset="0.7066" style="stop-color:#E96549"/>
			<stop  offset="0.7812" style="stop-color:#EC7B60"/>
			<stop  offset="0.849" style="stop-color:#F0967A"/>
			<stop  offset="0.8909" style="stop-color:#F3A98F"/>
		</linearGradient>
		<path fill="url(#SVGID_5_)" d="M21.366,17.678c-0.479,2.518-1.606,4.736-3.059,6.375c-0.177,0.201-0.358,0.393-0.546,0.576
			c-1.469,2.127-4.22,3.586-7.405,3.586c-6.222,0-9.073-6.657-9.162-6.869c1.396,3.645,3.703,5.863,5.225,6.869
			c1.642,1.086,3.166,1.529,4.436,1.695c11.536-0.574,12.391-12.232,12.391-12.232H21.366z"/>
		
			<linearGradient id="SVGID_6_" gradientUnits="userSpaceOnUse" x1="46.9773" y1="760.5354" x2="39.2929" y2="777.6552" gradientTransform="matrix(1 0 0 1 -16.7197 -748.2666)">
			<stop  offset="0" style="stop-color:#E21F26"/>
			<stop  offset="0.4027" style="stop-color:#F3A98F"/>
			<stop  offset="1" style="stop-color:#E21F26"/>
		</linearGradient>
		<path fill="url(#SVGID_6_)" d="M33.498,11.331c0.151,0.895-3.133,1.446-6.454,1.723l0,0c0,0,0.708,13.146-9.699,16.942
			c2.521-0.043,5.753-0.65,8.623-4.082c3.308-3.893,3.615-8.656,3.615-8.656c4.004-0.617,3.987-0.974,4.021-1.736
			c0,0,0.121-2.139,0.121-3.694C33.726,11.65,33.643,11.485,33.498,11.331z"/>
		
			<linearGradient id="SVGID_7_" gradientUnits="userSpaceOnUse" x1="27.219" y1="763.4094" x2="34.4819" y2="763.7336" gradientTransform="matrix(1 0 0 1 -16.7197 -748.2666)">
			<stop  offset="0" style="stop-color:#E21F26"/>
			<stop  offset="0.2838" style="stop-color:#E22427"/>
			<stop  offset="0.4238" style="stop-color:#E32E28"/>
			<stop  offset="0.5323" style="stop-color:#E63D2E"/>
			<stop  offset="0.6246" style="stop-color:#E64F39"/>
			<stop  offset="0.7066" style="stop-color:#E96549"/>
			<stop  offset="0.7812" style="stop-color:#EC7B60"/>
			<stop  offset="0.849" style="stop-color:#F0967A"/>
			<stop  offset="0.8909" style="stop-color:#F3A98F"/>
		</linearGradient>
		<path fill="url(#SVGID_7_)" d="M10.795,12.98c0,0,0,0-0.183,4.364c1.372,0.073,4.183,0.183,4.183,0.183l0.203-4.384
			C14.354,13.113,12.063,13.012,10.795,12.98z"/>
		
			<linearGradient id="SVGID_8_" gradientUnits="userSpaceOnUse" x1="28.2922" y1="760.9944" x2="31.7336" y2="761.1039" gradientTransform="matrix(1 0 0 1 -16.7197 -748.2666)">
			<stop  offset="0" style="stop-color:#72859A"/>
			<stop  offset="0.196" style="stop-color:#75879C"/>
			<stop  offset="0.3952" style="stop-color:#7C8FA1"/>
			<stop  offset="0.5961" style="stop-color:#8D9CAC"/>
			<stop  offset="0.7968" style="stop-color:#A7B2C0"/>
			<stop  offset="0.8909" style="stop-color:#B6BFCA"/>
		</linearGradient>
		<path fill="url(#SVGID_8_)" d="M15.027,12.532l-2.807-0.073l-1.426,0.521c1.267,0.031,3.559,0.133,4.203,0.163L15.027,12.532z"/>
		
			<radialGradient id="SVGID_9_" cx="37.075" cy="768.4807" r="8.0817" gradientTransform="matrix(1 0 0 1 -16.7197 -748.2666)" gradientUnits="userSpaceOnUse">
			<stop  offset="0" style="stop-color:#F3A98F"/>
			<stop  offset="1" style="stop-color:#E21F26"/>
		</radialGradient>
		<path fill="url(#SVGID_9_)" d="M27.044,13.054L27.044,13.054c-1.762,0.147-3.533,0.215-4.807,0.215c-3.147,0-5.527,0-6.135,0
			l-0.264,4.332c0,0,3.709,0.077,5.524,0.077h1.88h0.504c0,0-1.119,11.574-12.037,12.306c0.188,0.009,0.371,0.015,0.543,0.015
			c1.459,0,2.237,0,4.799,0c0.096,0,0.193-0.002,0.292-0.002C27.752,26.199,27.044,13.054,27.044,13.054z"/>
		
			<linearGradient id="SVGID_10_" gradientUnits="userSpaceOnUse" x1="38.3196" y1="766.2581" x2="31.7706" y2="777.1515" gradientTransform="matrix(1 0 0 1 -16.7197 -748.2666)">
			<stop  offset="0" style="stop-color:#E54231"/>
			<stop  offset="0.1629" style="stop-color:#E64432"/>
			<stop  offset="0.2432" style="stop-color:#E64C36"/>
			<stop  offset="0.3055" style="stop-color:#E8583E"/>
			<stop  offset="0.3584" style="stop-color:#EA674D"/>
			<stop  offset="0.4055" style="stop-color:#EC7B5D"/>
			<stop  offset="0.4477" style="stop-color:#EF9074"/>
			<stop  offset="0.4848" style="stop-color:#F3A98F"/>
			<stop  offset="1" style="stop-color:#E54231"/>
		</linearGradient>
		<path fill="url(#SVGID_10_)" d="M23.748,17.678h-0.504c0,0-0.854,11.658-12.39,12.232c0.301,0.039,0.586,0.061,0.855,0.073
			C22.629,29.251,23.748,17.678,23.748,17.678z"/>
		
			<linearGradient id="SVGID_11_" gradientUnits="userSpaceOnUse" x1="25.7278" y1="750.1233" x2="25.7278" y2="776.2567" gradientTransform="matrix(1 0 0 1 -16.7197 -748.2666)">
			<stop  offset="0" style="stop-color:#E21F26"/>
			<stop  offset="0.1545" style="stop-color:#E22427"/>
			<stop  offset="0.2306" style="stop-color:#E32E28"/>
			<stop  offset="0.2897" style="stop-color:#E63D2E"/>
			<stop  offset="0.3399" style="stop-color:#E64F39"/>
			<stop  offset="0.3845" style="stop-color:#E96549"/>
			<stop  offset="0.4252" style="stop-color:#EC7B60"/>
			<stop  offset="0.462" style="stop-color:#F0967A"/>
			<stop  offset="0.4848" style="stop-color:#F3A98F"/>
			<stop  offset="1" style="stop-color:#E21F26"/>
		</linearGradient>
		<path fill="url(#SVGID_11_)" d="M10.686,1.759c-3.52,0-7.937,2.143-10.007,8.197C0.232,11.47,0,13.033,0,14.55
			c0,2.663,0.478,4.918,1.194,6.796c0.089,0.211,2.94,6.869,9.162,6.869c3.187,0,5.938-1.459,7.405-3.586
			c-1.271,1.246-2.739,2.063-4.207,2.289c-0.271,0.043-0.544,0.063-0.813,0.063c-1.313,0-2.505-0.254-3.573-0.711l0,0
			C2.229,23.89,0.972,14.209,3.727,8.795c2.563-5.35,8.131-5.778,8.131-5.778l0,0c0.212-0.026,0.41-0.041,0.593-0.041
			c0.407,0,0.813,0.057,1.211,0.152c0.281,0.066,0.56,0.153,0.829,0.255c1.972,0.743,3.525,2.244,3.525,2.244
			S15.163,1.759,10.686,1.759z"/>
		
			<linearGradient id="SVGID_12_" gradientUnits="userSpaceOnUse" x1="36.9973" y1="753.8098" x2="24.0932" y2="753.2911" gradientTransform="matrix(1 0 0 1 -16.7197 -748.2666)">
			<stop  offset="0" style="stop-color:#E21F26"/>
			<stop  offset="0.1406" style="stop-color:#E22527"/>
			<stop  offset="0.2836" style="stop-color:#E5362B"/>
			<stop  offset="0.4279" style="stop-color:#E54B35"/>
			<stop  offset="0.5729" style="stop-color:#E96449"/>
			<stop  offset="0.7186" style="stop-color:#EC8063"/>
			<stop  offset="0.8629" style="stop-color:#F2A288"/>
			<stop  offset="0.8909" style="stop-color:#F3A98F"/>
		</linearGradient>
		<path fill="url(#SVGID_12_)" d="M11.952,0.017C6.188,0.236,2.194,4.808,0.679,9.956C2.748,3.903,7.166,1.76,10.686,1.76
			c4.479,0,7.331,3.867,7.331,3.867s1.505,0,3.355,0C17.616,0.303,13.623,0.019,11.952,0.017z"/>
		
			<linearGradient id="SVGID_13_" gradientUnits="userSpaceOnUse" x1="44.0969" y1="759.3918" x2="47.4019" y2="759.4969" gradientTransform="matrix(1 0 0 1 -16.7197 -748.2666)">
			<stop  offset="0" style="stop-color:#72859A"/>
			<stop  offset="0.196" style="stop-color:#75879C"/>
			<stop  offset="0.3952" style="stop-color:#7C8FA1"/>
			<stop  offset="0.5961" style="stop-color:#8D9CAC"/>
			<stop  offset="0.7968" style="stop-color:#A7B2C0"/>
			<stop  offset="0.8909" style="stop-color:#B6BFCA"/>
		</linearGradient>
		<path fill="url(#SVGID_13_)" d="M28.504,12.156c0,0,2.182-0.176,2.182-1.067c0-0.616-2.035-1.272-3.273-1.094v2.311
			C27.806,12.264,28.174,12.213,28.504,12.156L28.504,12.156L28.504,12.156z"/>
		
			<linearGradient id="SVGID_14_" gradientUnits="userSpaceOnUse" x1="44.2493" y1="764.2747" x2="38.5798" y2="756.5753" gradientTransform="matrix(1 0 0 1 -16.7197 -748.2666)">
			<stop  offset="0" style="stop-color:#72859A"/>
			<stop  offset="0.196" style="stop-color:#75879C"/>
			<stop  offset="0.3952" style="stop-color:#7C8FA1"/>
			<stop  offset="0.5961" style="stop-color:#8D9CAC"/>
			<stop  offset="0.7968" style="stop-color:#A7B2C0"/>
			<stop  offset="0.8909" style="stop-color:#B6BFCA"/>
		</linearGradient>
		<path fill="url(#SVGID_14_)" d="M33.498,11.331c-1.14-1.212-6.087-1.774-6.087-1.774v0.438c1.238-0.179,3.273,0.478,3.273,1.094
			c0,0.892-2.182,1.067-2.182,1.067l0,0c-0.329,0.059-0.698,0.108-1.093,0.15c-1.292,0.137-2.882,0.192-4.409,0.237
			c-3.842,0.159-6.895,0-6.895,0v0.633l-0.005,0.094c0.606,0,2.985,0,6.135,0C25.903,13.269,33.734,12.701,33.498,11.331z"/>
		
			<linearGradient id="SVGID_15_" gradientUnits="userSpaceOnUse" x1="45.0227" y1="757.6243" x2="46.7571" y2="760.6068" gradientTransform="matrix(1 0 0 1 -16.7197 -748.2666)">
			<stop  offset="0" style="stop-color:#72859A"/>
			<stop  offset="0.7818" style="stop-color:#B6BFCA"/>
			<stop  offset="0.8049" style="stop-color:#A7B2C0"/>
			<stop  offset="0.854" style="stop-color:#8D9CAC"/>
			<stop  offset="0.9032" style="stop-color:#7C8FA1"/>
			<stop  offset="0.952" style="stop-color:#75879C"/>
			<stop  offset="1" style="stop-color:#72859A"/>
		</linearGradient>
		<path fill="url(#SVGID_15_)" d="M30.686,11.088c0-0.616-2.035-1.272-3.273-1.094c0,0,2.059,0.064,2.674,1.005
			c0.331,0.585-0.366,0.937-1.582,1.156l0,0C28.504,12.156,30.686,11.98,30.686,11.088z"/>
	</g>
	<g>
		<path fill="#6B7F91" d="M55.385,7.031c-1.922,0-3.54,0-4.778,0l9.946,1.625C59.621,7.566,57.981,7.031,55.385,7.031z
			 M73.675,7.031c-1.873,0-6.863,0-6.863,0L65.99,9.148h5.717c1.955,0,2.67,0.779,2.896,1.8l4.354,0.712
			C78.591,7.528,75.441,7.031,73.675,7.031z M93.691,7.031c-2.58,0-6.678,0-7.879,0V0.579h-4.139v11.522l4.139,0.677V9.25
			c1.209,0,3.924,0,6.252,0c3.104,0,3.451,1.426,3.451,3.396c0,0.312,0,0.917,0,1.716l4.197,0.688
			c-0.008-1.014-0.01-1.926-0.01-2.647C99.703,7.918,96.746,7.031,93.691,7.031z M106.746,0.579h-4.14v3.396h4.14V0.579z
			 M102.607,7.049v8.472l4.14,0.674V7.049H102.607z M113.132,11.977c0-1.404,0.475-2.713,3.178-2.713s7.113,0,7.113,0V7.301
			c0,0-5.17,0-8.205,0c-3.033,0-6.307,0.617-6.307,5.216c0,1.504,0,2.825,0,4.033l4.221,0.689
			C113.132,14.891,113.132,12.671,113.132,11.977z"/>
		<path fill="#E22326" d="M45.588,7.031c0,0-2.831,0-5.05,0c-2.214,0-5.688,0.419-5.688,6.106c0,5.691,0,15.176,0,15.176h4.234
			c0,0,0-13.646,0-15.813s0.964-3.351,3.476-3.351c2.515,0,3.028,0,3.028,0V7.031L45.588,7.031z"/>
		<path fill="#E22326" d="M47.9,7.031v2.188h6.628c3.306,0,2.907,2.542,2.907,4.192c0,1.648,0,11.697,0,11.697l4.14-9.162
			c0,0,0-0.347,0-3.794c0-1.498-0.302-2.66-1.021-3.499l-9.947-1.622C48.879,7.031,47.9,7.031,47.9,7.031z"/>
		<path fill="#E22326" d="M48.783,23.484c0-2.299,0-2.002,0-3.086s0.515-2.666,2.885-2.666c1.646,0,2.535,0,2.535,0v-2.063
			c0,0-0.493,0-3.251,0c-2.762,0-6.311,0.722-6.311,4.334c0,3.609,0,1.771,0,4.204c0,2.43,1.708,4.227,5.783,4.227
			c4.071,0,5.778,0,5.778,0l0.823-2.158c0,0-4.635,0-5.65,0S48.783,25.88,48.783,23.484z"/>
		<polygon fill="#E22326" points="61.031,33.847 64.533,33.843 65.236,32.721 65.236,10.938 61.031,20.744 		"/>
		<path fill="#E22326" d="M74.693,11.892c0,1.442,0,8.177,0,11c0,2.824-0.918,3.351-2.496,3.351c-1.573,0-4.266,0-4.266,0v2.19
			c0,0,2.625,0,6.039,0c3.416,0,5.023-2.225,5.023-4.521c0-2.299,0-6.535,0-11.427c0-0.292-0.011-0.563-0.037-0.823l-4.354-0.712
			C74.667,11.247,74.693,11.564,74.693,11.892z"/>
		<path fill="#E22326" d="M95.515,28.433c0,0,3.988,0,4.188,0c0.164,0,0.049-8.119,0.01-13.384l-4.197-0.688
			C95.515,18.633,95.515,28.433,95.515,28.433z"/>
		<polygon fill="#E22326" points="81.673,28.552 85.812,28.552 85.812,12.779 81.673,12.103 		"/>
		<polygon fill="#E22326" points="102.607,28.433 106.746,28.433 106.746,16.195 102.607,15.521 		"/>
		<path fill="#E22326" d="M113.132,23.373c0-1.188,0-3.729,0-6.134l-4.221-0.688c0,2.482,0,4.481,0,6.562
			c0,3.09,1.157,5.321,5.725,5.321c2.77,0,6.381,0,8.795,0v-2.082c0,0-5.813,0-7.434,0C114.388,26.353,113.132,25.72,113.132,23.373
			z"/>
	</g>
	<g>
		<g>
			<polygon fill="#FFFFFF" points="57.688,34.111 57.683,34.112 57.693,34.11 57.696,34.109 			"/>
			<polygon fill="#FFFFFF" points="19.811,34.109 19.799,34.112 19.802,34.111 19.803,34.111 			"/>
			<ellipse fill="#FFFFFF" cx="76.621" cy="43.5" rx="0.001" ry="0.006"/>
			<polygon fill="#FFFFFF" points="65.753,32.288 65.748,32.291 65.754,32.287 65.755,32.287 			"/>
			<polygon fill="#FFFFFF" points="89.768,43.984 89.765,43.982 89.762,43.98 			"/>
		</g>
		<g>
			<path fill="#E22326" d="M5.579,32.375l3.878-0.019v1.902H5.625c-1.123,0.012-1.851,0.381-2.179,1.111
				c-0.334,0.731-0.51,1.582-0.543,2.549c0,0.168,0,0.332,0,0.504c0,0.168,0.005,0.342,0.016,0.516
				c0.03,0.363,0.099,0.713,0.198,1.062c0.105,0.346,0.274,0.651,0.514,0.918c0.246,0.279,0.535,0.449,0.857,0.518
				c0.323,0.066,0.657,0.101,0.996,0.101c0.021,0,0.044,0,0.065,0c0.029,0,0.052,0,0.074,0l3.832-0.015v1.931H5.515
				c-0.627,0-1.232-0.056-1.816-0.17c-0.58-0.113-1.129-0.377-1.646-0.789c-0.616-0.504-1.049-1.117-1.299-1.847
				c-0.246-0.725-0.381-1.469-0.399-2.229c-0.009-0.166-0.013-0.326-0.005-0.479c0.004-0.155,0.009-0.309,0.02-0.465
				c0.113-1.754,0.591-3.039,1.431-3.861C2.64,32.787,3.899,32.375,5.579,32.375z M14.572,35.31h-3.615v8.142h2.147v-6.563
				c0.041,0,0.081,0,0.116,0c0.037,0,0.071,0,0.114,0c0.744,0,1.171,0.06,1.289,0.185c0.12,0.12,0.183,0.561,0.183,1.313
				c0,0.053,0,0.107,0,0.172c0,0.062,0,0.119,0,0.17l2.05,0.015c0-0.093,0-0.179,0-0.261c0-0.086,0-0.168,0-0.25
				c0.013-0.887-0.077-1.592-0.26-2.119C16.409,35.587,15.734,35.32,14.572,35.31z M20.17,35.535
				c-0.539,0.139-1.018,0.436-1.428,0.891c-0.32,0.348-0.555,0.748-0.701,1.195c-0.15,0.446-0.242,0.901-0.273,1.366
				c-0.011,0.072-0.017,0.142-0.017,0.207c0,0.068,0,0.14,0,0.207c0,0.056,0,0.104,0,0.158c0,0.051,0,0.103,0,0.154
				c0.032,0.481,0.124,0.957,0.271,1.42c0.149,0.463,0.391,0.875,0.721,1.236c0.41,0.442,0.889,0.729,1.428,0.871
				c0.543,0.137,1.101,0.209,1.677,0.209h3.137v-1.699l-2.857,0.018c-0.63,0-1.112-0.078-1.452-0.233
				c-0.34-0.152-0.522-0.588-0.539-1.298h4.85v-1.698l-4.85,0.016c0.017-0.682,0.209-1.104,0.568-1.272
				c0.36-0.173,0.84-0.263,1.438-0.271h2.843V35.31l-3.137,0.015C21.271,35.324,20.713,35.394,20.17,35.535z M34.107,37.164
				c0.118,0.393,0.181,0.793,0.181,1.207v5.082h-5.778c-0.837,0-1.475-0.23-1.917-0.688c-0.446-0.461-0.646-1.094-0.605-1.908
				c0.074-0.977,0.419-1.612,1.039-1.899c0.615-0.287,1.354-0.435,2.207-0.435l2.829-0.014c0.03-0.67-0.142-1.088-0.517-1.252
				c-0.376-0.164-0.854-0.246-1.434-0.246l-3.583-0.018v-1.683h4.403c0.473,0.008,0.931,0.063,1.367,0.16
				c0.438,0.1,0.833,0.322,1.182,0.672C33.78,36.433,33.989,36.773,34.107,37.164z M32.076,40.13h-2.533
				c-0.021,0.014-0.044,0.016-0.064,0.016c-0.019,0-0.041,0-0.06,0c-0.287,0.011-0.56,0.064-0.806,0.164
				c-0.244,0.097-0.376,0.326-0.388,0.685c-0.018,0.403,0.091,0.641,0.335,0.713c0.241,0.071,0.517,0.112,0.826,0.123v-0.015h2.688
				L32.076,40.13L32.076,40.13z M39.029,32.357h-2.147v2.955h-1.515v1.621h1.515v3.984c0,0.783,0.205,1.401,0.619,1.856
				c0.412,0.451,1.022,0.677,1.841,0.677H41.3v-1.605c-0.02,0-0.042,0-0.069,0c-0.024,0-0.051,0-0.069,0
				c-0.668,0-1.193-0.063-1.574-0.199c-0.382-0.135-0.568-0.608-0.558-1.422v-3.291H41.3v-1.621h-2.271V32.357L39.029,32.357z
				 M42.567,34.384h2.254v-2.027h-2.254V34.384z M42.567,43.451h2.254V35.31h-2.254V43.451z M50.431,41.089l-2.255-5.779h-2.412
				l3.449,8.142h2.313l3.618-8.142h-2.316L50.431,41.089z M58.589,37.281c0.359-0.171,0.838-0.263,1.437-0.271h2.847v-1.7
				l-3.136,0.015c-0.575,0-1.14,0.069-1.681,0.211c-0.542,0.137-1.015,0.434-1.429,0.891c-0.318,0.348-0.556,0.746-0.703,1.193
				c-0.149,0.448-0.238,0.903-0.271,1.368c-0.01,0.072-0.014,0.14-0.014,0.207c0,0.066,0,0.138,0,0.207c0,0.054,0,0.104,0,0.156
				s0,0.104,0,0.154c0.027,0.483,0.119,0.957,0.271,1.422c0.144,0.463,0.384,0.873,0.715,1.234c0.414,0.442,0.889,0.731,1.429,0.873
				c0.541,0.137,1.104,0.209,1.681,0.209h3.136v-1.699l-2.859,0.016c-0.627,0-1.111-0.076-1.452-0.231
				c-0.337-0.152-0.521-0.591-0.54-1.298h4.853v-1.7l-4.853,0.018C58.037,37.875,58.23,37.449,58.589,37.281z"/>
			<path fill="#6B7F91" d="M75.552,39.927c0.008,0.094,0.014,0.189,0.014,0.289c-0.028,1.221-0.36,2.045-1.018,2.484
				c-0.656,0.436-1.543,0.647-2.67,0.647H65.98v-1.873h5.545c0.49,0.012,0.912-0.067,1.271-0.231
				c0.358-0.166,0.502-0.543,0.43-1.127c-0.043-0.464-0.215-0.744-0.51-0.854c-0.297-0.104-0.641-0.17-1.039-0.174l-2.615-0.014
				c-1.086,0.008-1.938-0.214-2.574-0.654c-0.625-0.447-0.94-1.248-0.93-2.414c0.021-1.221,0.359-2.053,1.021-2.5
				c0.657-0.449,1.553-0.67,2.672-0.67l5.797-0.012v1.877H69.58c-0.48,0.006-0.884,0.106-1.213,0.299
				c-0.328,0.194-0.488,0.561-0.488,1.094c0,0.41,0.137,0.699,0.414,0.875c0.278,0.176,0.606,0.266,0.977,0.266l2.933-0.012
				c0.104,0.012,0.217,0.012,0.338,0.012s0.235,0.007,0.352,0.021c0.342,0.018,0.685,0.076,1.019,0.164
				c0.323,0.094,0.618,0.266,0.877,0.51c0.235,0.215,0.409,0.473,0.524,0.777c0.113,0.299,0.188,0.614,0.222,0.936
				C75.537,39.746,75.552,39.837,75.552,39.927z M84.408,37.916c0.188,0.518,0.288,1.047,0.288,1.596c0,0.547-0.102,1.084-0.288,1.6
				c-0.189,0.517-0.474,0.962-0.857,1.33v-0.016c-0.371,0.377-0.816,0.648-1.342,0.826c-0.523,0.174-1.06,0.262-1.619,0.262
				c-0.557,0-1.096-0.088-1.613-0.262c-0.52-0.178-0.961-0.449-1.334-0.812c-0.385-0.368-0.668-0.813-0.856-1.33
				c-0.191-0.516-0.291-1.051-0.291-1.6s0.1-1.078,0.291-1.596c0.188-0.521,0.473-0.961,0.856-1.342
				c0.373-0.357,0.82-0.628,1.34-0.813c0.527-0.176,1.064-0.27,1.631-0.27c0.539,0,1.072,0.092,1.597,0.27
				c0.524,0.186,0.971,0.455,1.342,0.813C83.935,36.955,84.218,37.394,84.408,37.916z M82.566,39.378
				c-0.018-0.428-0.114-0.838-0.305-1.226c-0.186-0.381-0.482-0.666-0.889-0.842c-0.095-0.039-0.185-0.069-0.283-0.088
				c-0.103-0.02-0.191-0.033-0.279-0.045c-0.447-0.039-0.871,0.063-1.258,0.309c-0.391,0.246-0.656,0.589-0.795,1.027
				c-0.043,0.164-0.086,0.338-0.107,0.517c-0.024,0.188-0.032,0.364-0.024,0.543c0.016,0.461,0.112,0.887,0.315,1.297
				c0.199,0.401,0.521,0.688,0.963,0.854v-0.018c0.07,0.033,0.13,0.057,0.195,0.078c0.063,0.018,0.123,0.03,0.185,0.043
				c0.473,0.067,0.911-0.021,1.313-0.267c0.418-0.239,0.688-0.604,0.828-1.069c0.049-0.164,0.082-0.349,0.113-0.537
				C82.554,39.771,82.566,39.574,82.566,39.378z M85.916,43.349h2.129V32.826h-2.129V43.349z M94.74,41.652l-1.64,0.015
				c-0.494,0-0.852-0.09-1.043-0.258c-0.199-0.181-0.291-0.529-0.291-1.048v-4.737h-2.043v4.918c0,1.094,0.293,1.834,0.869,2.225
				c0.572,0.392,1.354,0.584,2.344,0.584h3.842v-7.727H94.74V41.652L94.74,41.652z M101.322,32.826h-2.03v2.797H97.85v1.543h1.441
				v3.781c0,0.743,0.192,1.325,0.584,1.762c0.389,0.428,0.967,0.643,1.744,0.643h1.864v-1.52c-0.02,0-0.041,0-0.065,0
				c-0.029,0-0.045,0-0.063,0c-0.641,0-1.135-0.066-1.504-0.189c-0.356-0.127-0.537-0.58-0.529-1.35v-3.125h2.162v-1.543h-2.162
				V32.826L101.322,32.826z M104.687,34.74h2.146v-1.914h-2.146V34.74z M104.687,43.349h2.146v-7.727h-2.146V43.349z
				 M115.984,37.916c0.197,0.518,0.291,1.047,0.291,1.596c0,0.547-0.094,1.084-0.291,1.6c-0.188,0.517-0.473,0.962-0.856,1.33
				v-0.016c-0.371,0.377-0.82,0.648-1.34,0.826c-0.525,0.174-1.064,0.262-1.623,0.262c-0.562,0-1.095-0.088-1.611-0.262
				c-0.521-0.178-0.965-0.449-1.336-0.812c-0.377-0.368-0.668-0.813-0.855-1.33c-0.187-0.516-0.289-1.051-0.289-1.6
				s0.103-1.078,0.289-1.596c0.188-0.521,0.479-0.961,0.855-1.342c0.371-0.357,0.818-0.628,1.34-0.813
				c0.527-0.176,1.066-0.27,1.621-0.27c0.551,0,1.084,0.092,1.607,0.27c0.52,0.186,0.969,0.455,1.342,0.813
				C115.511,36.955,115.796,37.394,115.984,37.916z M114.144,39.378c-0.02-0.428-0.123-0.838-0.309-1.226
				c-0.185-0.381-0.479-0.666-0.896-0.842c-0.09-0.039-0.184-0.069-0.278-0.088c-0.095-0.02-0.189-0.033-0.277-0.045
				c-0.451-0.039-0.873,0.063-1.264,0.309c-0.386,0.246-0.656,0.589-0.789,1.027c-0.049,0.164-0.084,0.338-0.115,0.517
				c-0.021,0.188-0.021,0.364-0.016,0.543c0.006,0.461,0.114,0.887,0.313,1.297c0.199,0.401,0.521,0.688,0.965,0.854v-0.018
				c0.063,0.033,0.131,0.057,0.193,0.078c0.063,0.018,0.125,0.03,0.184,0.043c0.47,0.067,0.908-0.021,1.318-0.267
				c0.416-0.239,0.686-0.604,0.822-1.069c0.053-0.164,0.088-0.349,0.106-0.537C114.132,39.771,114.144,39.574,114.144,39.378z
				 M123.738,36.228c-0.569-0.391-1.36-0.594-2.377-0.604h-3.84v7.727h2.033v-6.018l1.646,0.006c0.545,0,0.905,0.1,1.082,0.283
				c0.176,0.188,0.264,0.549,0.264,1.084v4.645h2.041v-4.877C124.587,37.369,124.306,36.621,123.738,36.228z"/>
		</g>
	</g>
</g>
</svg>
